<?xml version="1.0" encoding="UTF-8"?>
<svg version="1.1" xmlns="http://www.w3.org/2000/svg" width="1003" height="1038">
<path d="M0 0 C330.99 0 661.98 0 1003 0 C1003 342.54 1003 685.08 1003 1038 C672.01 1038 341.02 1038 0 1038 C0 695.46 0 352.92 0 0 Z " fill="#039192" transform="translate(0,0)"/>
<path d="M0 0 C1.26250076 -0.00250763 1.26250076 -0.00250763 2.55050659 -0.00506592 C31.67908953 -0.00853489 31.67908953 -0.00853489 44.5625 5.25 C47.8095002 6.07211282 51.05925621 6.84569179 54.328125 7.57421875 C59.73141225 8.852304 64.56425664 10.85002855 69.5625 13.25 C70.66827393 13.77762939 70.66827393 13.77762939 71.79638672 14.31591797 C89.50322348 22.93955297 105.88916449 34.0310485 118.5625 49.25 C119.19027344 49.96671875 119.81804687 50.6834375 120.46484375 51.421875 C126.65172739 58.72362282 131.15035672 66.80357962 135.5625 75.25 C136.30693359 76.673125 136.30693359 76.673125 137.06640625 78.125 C139.68159909 83.50295142 141.53671968 89.03466289 143.25 94.75 C143.55405762 95.76404907 143.55405762 95.76404907 143.86425781 96.79858398 C146.67786691 106.63564719 147.85864751 116.1079782 147.78955078 126.33081055 C147.78984283 127.48333817 147.79013489 128.63586578 147.79043579 129.82331848 C147.78905369 133.59453121 147.77354546 137.36554097 147.7578125 141.13671875 C147.75407839 143.76658521 147.7512333 146.39645306 147.74923706 149.02632141 C147.74305097 155.21670051 147.72667955 161.40700795 147.70653808 167.59735566 C147.68408905 174.65187994 147.67316314 181.70640786 147.66314721 188.76095903 C147.64231035 203.25734278 147.60719097 217.75367038 147.5625 232.25 C146.99853516 232.44634033 146.43457031 232.64268066 145.85351562 232.8449707 C143.25617013 233.74984035 140.65933327 234.65616142 138.0625 235.5625 C137.175625 235.87123047 136.28875 236.17996094 135.375 236.49804688 C131.26270205 237.93432741 127.16044077 239.38686883 123.08462524 240.92398071 C96.12517892 251.07374636 65.73170541 257.05498128 37.04541016 258.99511719 C34.43285465 259.17227247 34.43285465 259.17227247 31.5625 260.25 C20.73773164 261.96675776 9.49016862 261.53511914 -1.4375 261.5625 C-2.47273804 261.56545074 -3.50797607 261.56840149 -4.57458496 261.57144165 C-22.60937631 261.5830723 -40.17760039 260.34299949 -58.01367188 257.74511719 C-60.86610261 257.33262934 -63.71573706 256.96632867 -66.578125 256.6328125 C-77.37326098 255.28268418 -87.85266271 252.50600851 -98.375 249.8125 C-99.50808594 249.52265732 -99.50808594 249.52265732 -100.6640625 249.22695923 C-112.74975796 246.11522821 -124.49688435 242.75146752 -135.8203125 237.41796875 C-139.03667565 235.98260669 -142.29987643 234.87327533 -145.66015625 233.828125 C-147.4375 233.25 -147.4375 233.25 -149.4375 232.25 C-149.50799313 217.8275394 -149.56048323 203.40510602 -149.59293652 188.98250771 C-149.608319 182.28384795 -149.62962562 175.58531194 -149.66381836 168.88671875 C-149.6966714 162.4092534 -149.71440723 155.93189946 -149.72213173 149.45435715 C-149.72762902 146.99631372 -149.73836227 144.53827565 -149.75469017 142.0802803 C-149.95494415 110.65358018 -144.44017227 82.02330944 -125.4375 56.25 C-124.82390625 55.41339844 -124.2103125 54.57679688 -123.578125 53.71484375 C-100.66267643 23.83953787 -66.37473341 6.47241111 -29.4375 1.25 C-19.66111559 -0.00817091 -9.84005176 0.0103061 0 0 Z " fill="#FCFDFD" transform="translate(498.4375,594.75)"/>
<path d="M0 0 C0.58450928 0.42732422 1.16901855 0.85464844 1.77124023 1.29492188 C9.13810527 6.72526055 16.3251182 12.39703071 23.52539062 18.04492188 C26.48340317 20.35905076 29.45810234 22.6510068 32.4375 24.9375 C33.98824219 26.12859375 33.98824219 26.12859375 35.5703125 27.34375 C37.08238281 28.50390625 37.08238281 28.50390625 38.625 29.6875 C45.97803429 35.32921429 53.31211177 40.99383958 60.625 46.6875 C73.56738689 56.76293658 86.59273668 66.72877489 99.625 76.6875 C110.77766557 85.20991303 121.91878447 93.74668273 133.03515625 102.31640625 C133.88932129 102.97443237 133.88932129 102.97443237 134.76074219 103.64575195 C136.32648219 104.85197361 137.89177387 106.05877714 139.45703125 107.265625 C141.90358261 109.13598485 144.35851606 110.99236517 146.82299805 112.83886719 C147.53691208 113.37388855 148.25082611 113.90890991 148.9863739 114.46014404 C149.52712051 114.86517151 150.06786713 115.27019897 150.625 115.6875 C150.60945572 115.12897339 150.59391144 114.57044678 150.57789612 113.99499512 C150.42241484 108.15486159 150.31720437 102.31532041 150.24047852 96.47363281 C150.2053865 94.2969574 150.15769895 92.1204457 150.09692383 89.94433594 C150.01150875 86.80622906 149.97219886 83.67031161 149.94140625 80.53125 C149.90527725 79.56634644 149.86914825 78.60144287 149.83192444 77.6072998 C149.82911489 72.71665493 150.40726992 69.13555888 153.23583984 65.06738281 C157.67158303 60.67154267 162.31754203 60.73535146 168.32691956 60.67852783 C169.72969416 60.70612157 171.13244042 60.73518968 172.53515625 60.765625 C173.99050746 60.77040114 175.44587117 60.77220296 176.90122986 60.7711792 C179.94218873 60.77741471 182.98124768 60.81037277 186.02172852 60.86425781 C189.90797103 60.93228208 193.79213438 60.94751241 197.67890263 60.94447708 C200.68089946 60.94556767 203.68244693 60.96755064 206.68429375 60.99648285 C208.11670984 61.00915734 209.54917651 61.01708218 210.98164558 61.02005768 C212.98673081 61.028786 214.99162089 61.06704124 216.99633789 61.10644531 C218.7034066 61.1293161 218.7034066 61.1293161 220.44496155 61.15264893 C224.40853278 61.81928248 226.5569614 63.11126566 229.625 65.6875 C232.57615996 70.23273666 231.8501258 75.79922911 231.76928711 81.02636719 C231.75348967 83.18072506 231.73769705 85.33508298 231.72190857 87.48944092 C231.70385571 89.19856785 231.70385571 89.19856785 231.68543816 90.9422226 C231.62895788 96.98740604 231.62951128 103.03271892 231.61914062 109.078125 C231.60161057 116.76612283 231.56761297 124.45310065 231.4777832 132.140625 C231.40660679 138.3584598 231.38915465 144.57444982 231.40704536 150.79264069 C231.40392773 153.15773608 231.38109314 155.52289306 231.33790398 157.88759613 C230.43500435 170.69839 230.43500435 170.69839 235.00758362 182.07676697 C237.78791177 184.38253597 240.42281118 186.03984372 243.625 187.6875 C245.05282216 188.73462591 246.46533735 189.8036558 247.84765625 190.91015625 C249.12603829 191.85888445 250.40597949 192.80551547 251.6875 193.75 C256.85722195 197.59216448 261.93842406 201.50833807 266.94140625 205.56640625 C270.42978708 208.32359809 273.99530402 210.97102606 277.5625 213.625 C283.21734114 217.83596775 288.73454167 222.15258196 294.16015625 226.65625 C296.57594271 228.64707244 299.02582187 230.58241039 301.5 232.5 C302.22316406 233.06203125 302.94632813 233.6240625 303.69140625 234.203125 C305.25801671 235.40577546 306.84484779 236.58205505 308.4375 237.75 C313.43611245 242.17734246 316.26645743 247.59256642 316.84765625 254.23046875 C317.13464998 263.27701025 315.02816292 269.73352572 309.4453125 276.859375 C306.3232501 279.99483681 302.60186141 281.83428258 298.625 283.6875 C297.635 284.1825 297.635 284.1825 296.625 284.6875 C294.75412631 284.8371699 292.87663445 284.90899416 291 284.9375 C289.99710938 284.96328125 288.99421875 284.9890625 287.9609375 285.015625 C279.04908042 284.13904889 273.25835171 279.5194757 266.4375 274.125 C265.51348389 273.40699219 264.58946777 272.68898438 263.63745117 271.94921875 C261.7982248 270.51937012 259.96195661 269.08570689 258.12890625 267.64794922 C255.44267669 265.54474881 252.73727529 263.46843916 250.02490234 261.39916992 C245.90921211 258.25764875 241.83855218 255.06788873 237.8125 251.8125 C233.59635509 248.41502401 229.28070707 245.16919744 224.9375 241.9375 C219.58339389 237.95196608 214.31561615 233.88367157 209.125 229.6875 C203.44844191 225.10127004 197.66909807 220.68150741 191.81420898 216.32592773 C186.72189872 212.53017675 181.69368007 208.65852236 176.6875 204.75 C168.80518287 198.59761925 160.88063872 192.50366771 152.92773438 186.44287109 C150.43511789 184.54275314 147.94408945 182.64056434 145.453125 180.73828125 C137.47212069 174.64686504 129.48398258 168.56723193 121.4375 162.5625 C115.00282175 157.75912566 108.6618551 152.84243634 102.33520508 147.89794922 C97.47264522 144.10464063 92.57044372 140.37196635 87.625 136.6875 C81.98580531 132.48606231 76.41392714 128.20771479 70.875 123.875 C64.51487481 118.90133809 58.09594544 114.0160418 51.625 109.1875 C42.19252002 102.14540568 32.89430885 94.94236037 23.625 87.6875 C20.58506918 85.31026887 17.5434542 82.93521869 14.5 80.5625 C13.75943359 79.98483887 13.01886719 79.40717773 12.25585938 78.81201172 C7.21723275 74.8936943 2.12330006 71.05667092 -3 67.25 C-8.33503666 63.28478762 -13.51153255 59.23100249 -18.375 54.6875 C-21.31579548 56.06714261 -23.85558368 57.66253924 -26.46484375 59.59375 C-27.242229 60.16738281 -28.01961426 60.74101562 -28.82055664 61.33203125 C-30.0540686 62.25048828 -30.0540686 62.25048828 -31.3125 63.1875 C-32.16642334 63.82042969 -33.02034668 64.45335937 -33.90014648 65.10546875 C-40.78636333 70.22164832 -47.60721805 75.415557 -54.375 80.6875 C-55.82156268 81.81256674 -57.26818098 82.93756197 -58.71484375 84.0625 C-61.04755166 85.87682838 -63.38004591 87.69142835 -65.71191406 89.50683594 C-73.25933481 95.38132521 -80.84170257 101.20926668 -88.4296875 107.03125 C-89.46351563 107.8253125 -90.49734375 108.619375 -91.5625 109.4375 C-92.0884375 109.84145996 -92.614375 110.24541992 -93.15625 110.66162109 C-96.32430887 113.09866164 -99.4821849 115.54827218 -102.6328125 118.0078125 C-109.9174067 123.69394598 -117.21580383 129.35176461 -124.625 134.875 C-130.71562568 139.41670693 -136.71538404 144.05869145 -142.67578125 148.76953125 C-153.04008429 156.95962377 -163.50047975 165.02906308 -173.98046875 173.0703125 C-176.53310607 175.03364388 -179.07486016 177.01051207 -181.61328125 178.9921875 C-188.82194281 184.61967459 -196.04233963 190.22213462 -203.375 195.6875 C-215.08975733 204.42202072 -226.56671039 213.46544075 -238.04736328 222.50415039 C-243.58121074 226.85806794 -249.14255675 231.17639056 -254.703125 235.49609375 C-259.27114024 239.04640492 -263.8294354 242.6084981 -268.375 246.1875 C-274.36465703 250.90248423 -280.37488549 255.59062983 -286.39770508 260.26318359 C-290.36906501 263.34473909 -294.33104172 266.43717796 -298.27734375 269.55078125 C-299.07881836 270.18072998 -299.88029297 270.81067871 -300.70605469 271.4597168 C-302.23175061 272.65931339 -303.75472474 273.86238316 -305.27441406 275.06958008 C-314.74856739 282.50151242 -322.11675807 285.8165486 -334.375 284.6875 C-337.17168326 283.82136302 -339.13499363 282.55233289 -341.375 280.6875 C-341.98085938 280.18992187 -342.58671875 279.69234375 -343.2109375 279.1796875 C-348.7131392 274.1882387 -351.80434565 268.97817469 -352.7890625 261.57421875 C-353.24329883 251.4017156 -350.00868092 244.26547713 -343.375 236.6875 C-341.46166526 235.09032884 -339.49805717 233.55232318 -337.5 232.0625 C-336.33406042 231.18435668 -335.16871594 230.30542277 -334.00390625 229.42578125 C-333.40465332 228.97541504 -332.80540039 228.52504883 -332.18798828 228.06103516 C-329.24130322 225.82860179 -326.33963384 223.53986932 -323.4375 221.25 C-322.26173245 220.32420135 -321.08595113 219.39842019 -319.91015625 218.47265625 C-319.32637207 218.01262207 -318.74258789 217.55258789 -318.14111328 217.07861328 C-315.22128952 214.77875763 -312.29798107 212.48334055 -309.375 210.1875 C-308.20831639 209.2708549 -307.04164973 208.35418823 -305.875 207.4375 C-294.20833333 198.27083333 -282.54166667 189.10416667 -270.875 179.9375 C-270.29782227 179.4839917 -269.72064453 179.0304834 -269.12597656 178.56323242 C-267.95609984 177.64406687 -266.78617777 176.72495905 -265.61621094 175.8059082 C-262.74828843 173.55293906 -259.8810901 171.29906277 -257.015625 169.04296875 C-245.35856071 159.86781813 -233.68460619 150.7126005 -221.87231445 141.73779297 C-214.94085967 136.47042954 -208.13009785 131.08684469 -201.3984375 125.56665039 C-195.88917407 121.06529478 -190.26369867 116.73126818 -184.59863281 112.4284668 C-180.07511095 108.99210982 -175.58409022 105.51954529 -171.125 102 C-166.73093155 98.53230925 -162.31798652 95.09231136 -157.875 91.6875 C-153.34961827 88.21918692 -148.85318519 84.71653486 -144.375 81.1875 C-137.74891884 75.96736727 -131.06991133 70.81889204 -124.375 65.6875 C-117.10423664 60.10954796 -109.85362021 54.50745085 -102.625 48.875 C-96.03834605 43.7434805 -89.42166499 38.65356986 -82.78149414 33.59155273 C-77.51615959 29.57280521 -72.28483496 25.5119185 -67.0625 21.4375 C-61.17002815 16.84173511 -55.25048299 12.29537108 -49.2421875 7.8515625 C-47.15048373 6.2728106 -45.10434789 4.67306968 -43.0703125 3.0234375 C-28.84367586 -8.44568549 -15.45943083 -11.35600166 0 0 Z " fill="#FBFCFC" transform="translate(517.375,142.3125)"/>
<path d="M0 0 C5.45343284 3.38456059 9.29936047 7.11421785 11.484375 13.203125 C14.92021175 28.69680391 9.15000456 47.59631707 4.875 62.4375 C4.5867334 63.44039062 4.2984668 64.44328125 4.00146484 65.4765625 C2.43368338 70.74051816 0.64239148 75.73174442 -1.67431641 80.7109375 C-2.75282847 83.08106521 -3.70729263 85.48000848 -4.65234375 87.90625 C-14.32597675 112.30922493 -28.97356084 134.80059544 -45.6875 154.9375 C-46.09581055 155.43072754 -46.50412109 155.92395508 -46.92480469 156.43212891 C-58.29132145 170.12840245 -70.11928489 183.37341853 -83.6875 194.9375 C-84.62207031 195.74960937 -85.55664062 196.56171875 -86.51953125 197.3984375 C-119.80655579 226.16636268 -158.29441644 247.5326146 -199.35180664 263.03295898 C-201.3921255 263.82311069 -203.39860798 264.65739017 -205.40234375 265.53515625 C-231.08178524 276.49701058 -259.20626361 281.33484951 -286.63262939 285.61468506 C-288.46307749 285.9022438 -290.29196446 286.19970021 -292.12060547 286.49853516 C-327.74062446 292.13635732 -367.06498027 291.28900328 -402.6875 285.9375 C-403.76209473 285.7823291 -404.83668945 285.6271582 -405.94384766 285.46728516 C-427.07325293 282.36569207 -447.2752669 277.15130187 -467.6875 270.9375 C-468.88028564 270.57833496 -468.88028564 270.57833496 -470.09716797 270.21191406 C-484.38836843 265.86365303 -498.02234026 259.93355583 -511.6875 253.9375 C-512.43660645 253.61136719 -513.18571289 253.28523437 -513.95751953 252.94921875 C-532.08780018 245.00617006 -549.34976206 235.08111439 -565.6875 223.9375 C-566.38681641 223.46344727 -567.08613281 222.98939453 -567.80664062 222.50097656 C-594.36767058 204.41095753 -620.07304826 182.5070035 -639.6875 156.9375 C-640.63056607 155.77965275 -641.57747555 154.62492977 -642.52734375 153.47265625 C-654.80394206 138.52043916 -664.9447638 122.50366122 -673.8125 105.3125 C-674.32425781 104.32765625 -674.83601563 103.3428125 -675.36328125 102.328125 C-676.8120091 99.53494792 -678.25178274 96.73738282 -679.6875 93.9375 C-680.06890137 93.19878662 -680.45030273 92.46007324 -680.84326172 91.69897461 C-692.30981671 69.21356494 -702.81768166 37.817673 -698.0625 12.375 C-695.87094941 6.89612352 -692.57238141 3.1940876 -687.6875 -0.0625 C-680.06289599 -1.87788191 -671.56658697 -2.28502899 -664.6875 1.9375 C-659.75601895 6.42242961 -656.05968359 11.01362158 -655.4140625 17.8203125 C-655.38054687 18.89023437 -655.34703125 19.96015625 -655.3125 21.0625 C-654.48105013 34.39341284 -651.1208447 47.10668281 -647.125 59.8125 C-646.83222168 60.74578125 -646.53944336 61.6790625 -646.23779297 62.640625 C-644.781303 67.11758798 -643.2334334 70.95314799 -640.6875 74.9375 C-639.95025855 76.64098978 -639.21427209 78.34514254 -638.50048828 80.05859375 C-627.56099808 105.34097111 -609.73191101 127.34608874 -590.6875 146.9375 C-589.93855469 147.72640625 -589.18960938 148.5153125 -588.41796875 149.328125 C-583.23761047 154.68784396 -577.49562345 159.27981641 -571.6875 163.9375 C-569.93728622 165.39557676 -568.18728687 166.85391095 -566.4375 168.3125 C-534.84136732 194.0344221 -499.41456517 211.72481555 -460.6875 223.9375 C-459.9749707 224.16308594 -459.26244141 224.38867188 -458.52832031 224.62109375 C-454.92374412 225.75762164 -451.30826907 226.85391218 -447.6875 227.9375 C-446.81480469 228.21207031 -445.94210937 228.48664063 -445.04296875 228.76953125 C-440.26778265 230.25856777 -435.53148937 231.46807275 -430.61303711 232.38012695 C-428.58283405 232.76692104 -426.55642746 233.1739755 -424.53344727 233.59692383 C-373.41193908 244.24414394 -317.1958854 245.73461367 -266.16113281 233.5234375 C-263.26768854 232.83805789 -260.36523269 232.200306 -257.4609375 231.5625 C-232.16345016 226.07242835 -232.16345016 226.07242835 -207.875 217.3046875 C-203.49286952 215.42509722 -199.03501175 213.77571813 -194.5625 212.125 C-193.29768799 211.65332397 -193.29768799 211.65332397 -192.00732422 211.17211914 C-191.2185791 210.88199951 -190.42983398 210.59187988 -189.6171875 210.29296875 C-188.90804199 210.03153076 -188.19889648 209.77009277 -187.46826172 209.50073242 C-185.6875 208.9375 -185.6875 208.9375 -183.6875 208.9375 C-183.6875 208.2775 -183.6875 207.6175 -183.6875 206.9375 C-182.01300781 206.18919922 -182.01300781 206.18919922 -180.3046875 205.42578125 C-149.57136366 191.43037008 -122.08613021 172.22235537 -97.6875 148.9375 C-96.37845703 147.69033203 -96.37845703 147.69033203 -95.04296875 146.41796875 C-89.09797212 140.6190857 -83.84697983 134.43636948 -78.6875 127.9375 C-78.05457031 127.18339844 -77.42164063 126.42929687 -76.76953125 125.65234375 C-60.46054573 106.04793435 -45.63212702 81.45228404 -38.875 56.75 C-38.65908203 55.98880859 -38.44316406 55.22761719 -38.22070312 54.44335938 C-37.70189727 52.61024534 -37.19350455 50.77418886 -36.6875 48.9375 C-36.0275 48.9375 -35.3675 48.9375 -34.6875 48.9375 C-34.57792969 48.01453125 -34.46835937 47.0915625 -34.35546875 46.140625 C-33.82020983 41.7367061 -33.26272887 37.3363598 -32.6875 32.9375 C-32.5750293 32.07688965 -32.46255859 31.2162793 -32.34667969 30.32958984 C-31.99328769 27.67622924 -31.6238274 25.02555211 -31.25 22.375 C-31.14002686 21.54323242 -31.03005371 20.71146484 -30.91674805 19.85449219 C-30.06852009 13.99314832 -29.08866332 8.41401363 -24.8203125 4.01171875 C-16.74521548 -1.56543969 -9.39754756 -4.81762978 0 0 Z " fill="#FAFCFC" transform="translate(841.6875,633.0625)"/>
<path d="M0 0 C0.97582031 0.26683594 1.95164062 0.53367187 2.95703125 0.80859375 C24.65737359 7.20777727 45.11891929 24.01889998 57 43 C57.60714844 43.94746094 58.21429687 44.89492188 58.83984375 45.87109375 C63.03093153 52.68493414 65.71942432 59.35900578 68 67 C68.5381429 68.5012678 69.07955289 70.00137055 69.625 71.5 C75.89950622 90.58847778 74.87737879 112.31735682 68 131 C67.76474609 131.66708984 67.52949219 132.33417969 67.28710938 133.02148438 C58.59301444 157.47512329 42.36993341 177.0600151 20 190 C18.59621094 190.86238281 18.59621094 190.86238281 17.1640625 191.7421875 C-2.09527054 203.09446299 -29.34652893 205.16700935 -51 200 C-69.42266825 194.90197881 -84.63844258 185.5418483 -98 172 C-98.72574219 171.27296875 -99.45148438 170.5459375 -100.19921875 169.796875 C-109.41027155 160.0248347 -115.83453146 148.30351082 -121 136 C-121.30550781 135.319375 -121.61101562 134.63875 -121.92578125 133.9375 C-122.74875124 131.97925345 -123.39541604 130.03687217 -124 128 C-124.41765625 126.59621094 -124.41765625 126.59621094 -124.84375 125.1640625 C-129.28876755 107.17820447 -129.09107264 86.53808845 -123 69 C-122.68804687 68.01644531 -122.37609375 67.03289062 -122.0546875 66.01953125 C-113.00102308 39.04874102 -93.98940311 18.50914113 -69.125 5.3125 C-48.93204857 -4.33947679 -21.43903386 -6.75636674 0 0 Z " fill="#FCFDFD" transform="translate(525,380)"/>
<path d="M0 0 C62.37 0 124.74 0 189 0 C189 342.54 189 685.08 189 1038 C134.55 1038 80.1 1038 24 1038 C27.60648541 1036.19675729 30.76006384 1035.12942805 34.625 1034.0625 C35.87667969 1033.70929688 37.12835937 1033.35609375 38.41796875 1032.9921875 C40.47933101 1032.42121039 42.54317489 1031.85872581 44.61328125 1031.3203125 C76.53259891 1022.62967475 110.34774752 998.25780175 131 973 C131.61101562 972.27683594 132.22203125 971.55367187 132.8515625 970.80859375 C156.64803911 942.03476645 175.30711183 903.76531055 179.66411114 866.56427288 C179.79052045 865.48629517 179.91692977 864.40831745 180.04716967 863.29767374 C181.42162511 850.53098667 181.41353295 837.79761069 181.3742218 824.97163391 C181.37530295 822.23098794 181.38090421 819.49035505 181.38626546 816.74971455 C181.3954717 810.83846298 181.39378035 804.9272969 181.38453293 799.01604652 C181.37081936 790.22536435 181.37453563 781.43474667 181.38149153 772.6440596 C181.39336597 756.9366072 181.38837191 741.22919518 181.37621326 725.52174504 C181.36564732 711.77717542 181.36114155 698.03261952 181.36250877 684.28804588 C181.3625928 683.3738092 181.36267683 682.45957252 181.36276341 681.5176317 C181.3631157 677.8058158 181.36349972 674.0939999 181.36392899 670.38218401 C181.36788735 635.61651989 181.35520731 600.85087999 181.33440243 566.08522279 C181.31603057 535.24032146 181.310222 504.39544333 181.31567383 473.55053711 C181.31602026 471.56935417 181.31636636 469.58817123 181.31671212 467.60698829 C181.31696861 466.13775367 181.31696861 466.13775367 181.31723029 464.63883754 C181.31808391 459.70755273 181.31890769 454.77626792 181.31969929 449.8449831 C181.31985637 448.87197891 181.32001345 447.89897471 181.32017529 446.89648554 C181.32417044 421.07166844 181.318683 395.24685354 181.310188 369.42203778 C181.30928102 366.64143405 181.30837537 363.86083032 181.30747276 361.08022659 C181.30687166 359.23589277 181.30626304 357.39155896 181.30564686 355.54722514 C181.30143558 342.72177399 181.30084299 329.89632722 181.30275235 317.0708756 C181.30520127 300.54011671 181.3010755 284.00938129 181.28554235 267.47862879 C181.2775275 258.74927774 181.27486423 250.01996575 181.2801847 241.29061241 C181.28318265 235.44467207 181.27879363 229.59876598 181.26863613 223.75283381 C181.2630616 220.43234782 181.2615443 217.11200536 181.26680271 213.79150943 C181.28406349 201.79562433 181.18301821 189.85652442 180.17120647 177.89703655 C180.10212074 177.03737376 180.033035 176.17771096 179.96185576 175.29199778 C179.37481243 169.25221645 177.87679856 163.75708284 176 158 C175.44013935 155.98332207 174.88892887 153.96419423 174.3515625 151.94140625 C173.92617188 150.37229492 173.92617188 150.37229492 173.4921875 148.77148438 C172.91557546 146.63776011 172.34522487 144.50233359 171.78125 142.36523438 C170.08501404 136.15716358 168.00549347 130.44202326 165.23144531 124.63549805 C164.04014969 122.08592703 163.01056502 119.51916751 162.0078125 116.890625 C160.04542522 111.91295798 157.58836682 107.35441343 154.875 102.75 C154.39417969 101.92935059 153.91335938 101.10870117 153.41796875 100.26318359 C134.41089266 68.26669166 107.88816038 43.87741245 76 25 C74.93313965 24.36553955 74.93313965 24.36553955 73.84472656 23.71826172 C62.44984092 17.0450285 50.64264612 12.71786743 38 9 C37.18208984 8.75765625 36.36417969 8.5153125 35.52148438 8.265625 C23.81280764 4.85256943 12.07414685 2.66306838 0 1 C0 0.67 0 0.34 0 0 Z " fill="#F9FCFB" transform="translate(814,0)"/>
<path d="M0 0 C1.37048436 1.16863007 2.72426874 2.35707032 4.0625 3.5625 C4.90296875 4.2740625 5.7434375 4.985625 6.609375 5.71875 C18.07211636 15.6214733 26.50466308 28.64412174 30.0625 43.5625 C29.76171875 45.48046875 29.76171875 45.48046875 29.0625 47.5625 C28.82273437 48.52800781 28.58296875 49.49351562 28.3359375 50.48828125 C25.88626661 59.72247545 22.34910313 68.0487766 18.0625 76.5625 C17.46840332 77.7683374 17.46840332 77.7683374 16.86230469 78.99853516 C5.97964825 101.02613088 -8.05381342 119.75226964 -24.9375 137.5625 C-25.64712891 138.31515137 -25.64712891 138.31515137 -26.37109375 139.08300781 C-33.46270915 146.55418799 -41.00368805 153.04837101 -49.22021484 159.25097656 C-50.86211056 160.50492365 -52.47509794 161.78762052 -54.08203125 163.0859375 C-62.86599963 170.09101417 -72.25280317 175.88653796 -81.9375 181.5625 C-82.60555664 181.96114258 -83.27361328 182.35978516 -83.96191406 182.77050781 C-88.70511414 185.5625 -88.70511414 185.5625 -90.9375 185.5625 C-90.94114563 184.2708493 -90.94479126 182.97919861 -90.94854736 181.64840698 C-90.98574181 169.3818487 -91.04377683 157.11553581 -91.12140274 144.84916496 C-91.16064824 138.54526718 -91.19294794 132.2415043 -91.20849609 125.9375 C-91.22381522 119.83591185 -91.25852532 113.7346952 -91.30580902 107.63327408 C-91.32046733 105.3237242 -91.32853189 103.01412123 -91.32938385 100.70452499 C-91.35626763 64.31474407 -100.66348782 32.61349886 -122.9375 3.5625 C-119.92886903 -3.98373833 -110.72697782 -7.22813912 -103.69555664 -10.27368164 C-71.2235522 -23.78893936 -28.80503903 -21.96128862 0 0 Z " fill="#FCFDFC" transform="translate(758.9375,629.4375)"/>
<path d="M0 0 C0.495 0.495 0.495 0.495 1 1 C2.49436646 1.28172482 3.9962669 1.52353417 5.5 1.75 C22.05261221 4.74401254 35.0399325 10.69328833 49 20 C47.56525968 23.17524498 45.70548922 25.95920661 43.72583008 28.81884766 C26.87010593 53.26715401 16.97696616 80.56551711 16.79467773 110.45507812 C16.78477814 111.47061768 16.77487854 112.48615723 16.76467896 113.5324707 C16.73327123 116.865374 16.70838903 120.19829151 16.68359375 123.53125 C16.6630063 125.85152543 16.64200937 128.17179725 16.62062073 130.49206543 C16.56558503 136.58126906 16.51609456 142.6705055 16.46777344 148.75976562 C16.41742286 154.98049824 16.36180774 161.20118357 16.30664062 167.421875 C16.19928553 179.61454288 16.09779079 191.80725192 16 204 C12.35349517 202.81661763 9.11222811 201.66864557 5.85546875 199.63671875 C4.72951294 198.93482422 4.72951294 198.93482422 3.58081055 198.21875 C2.39612183 197.46078125 2.39612183 197.46078125 1.1875 196.6875 C0.35581299 196.15769531 -0.47587402 195.62789062 -1.33276367 195.08203125 C-9.92808907 189.52413941 -18.04050387 183.42790217 -26 177 C-26.59586914 176.52127441 -27.19173828 176.04254883 -27.80566406 175.54931641 C-42.15294734 163.92195472 -55.88237903 150.77417692 -67 136 C-67.85125029 134.91251596 -68.70283342 133.82529239 -69.5546875 132.73828125 C-83.36093751 114.82573426 -105.53977581 82.95971156 -103 59 C-102.31958628 56.29217465 -101.6156872 53.89331429 -100.625 51.3125 C-100.36315918 50.62478516 -100.10131836 49.93707031 -99.83154297 49.22851562 C-96.80185549 41.80089471 -92.27186446 35.97312968 -87 30 C-86.02740234 28.87851562 -86.02740234 28.87851562 -85.03515625 27.734375 C-79.49073512 21.77969015 -72.75290927 17.45267068 -66 13 C-65.01 12.34 -64.02 11.68 -63 11 C-61.68 11 -60.36 11 -59 11 C-59 10.34 -59 9.68 -59 9 C-58.18015625 8.73445312 -57.3603125 8.46890625 -56.515625 8.1953125 C-55.43796875 7.84210937 -54.3603125 7.48890625 -53.25 7.125 C-52.18265625 6.77695312 -51.1153125 6.42890625 -50.015625 6.0703125 C-47.12232324 5.12183861 -47.12232324 5.12183861 -45.01953125 3.96875 C-32.03607083 -2.25929291 -13.91437923 -0.95891096 0 0 Z " fill="#FCFDFC" transform="translate(311,611)"/>
<path d="M0 0 C0.97066406 0.4228125 1.94132812 0.845625 2.94140625 1.28125 C19.07592338 9.17637645 31.27981698 24.62881012 37.21484375 41.328125 C38.09283681 44.31592227 38.33508711 46.90044426 38 50 C38.66 50 39.32 50 40 50 C40.63118074 76.47398618 40.63118074 76.47398618 37 87 C36.67128906 87.98484375 36.34257812 88.9696875 36.00390625 89.984375 C28.84033542 109.12028047 15.51738584 120.93881335 -2.41796875 129.859375 C-3.69607422 130.42398438 -3.69607422 130.42398438 -5 131 C-6.19367188 131.53109375 -7.38734375 132.0621875 -8.6171875 132.609375 C-13.67768591 134.46416256 -18.59298321 134.53487012 -23.9375 134.5 C-24.94514404 134.49500488 -25.95278809 134.49000977 -26.9909668 134.48486328 C-46.87538503 134.02767774 -61.08826468 125.88814773 -74.97265625 112.03125 C-90.0259956 95.88612999 -92.85984027 75.72636007 -92.14355469 54.60302734 C-91.3761557 40.68804772 -84.17879548 27.25865377 -75 17 C-74.34515625 16.25234375 -73.6903125 15.5046875 -73.015625 14.734375 C-54.39599595 -5.24435107 -24.8172035 -11.09544413 0 0 Z " fill="#FCFDFC" transform="translate(327,465)"/>
<path d="M0 0 C14.78912065 11.22647534 24.8075779 26.20967542 27.52832031 44.76464844 C28.83923486 56.59233815 28.87393154 68.83048107 24.7890625 80.1171875 C24.43714844 81.1071875 24.08523438 82.0971875 23.72265625 83.1171875 C16.64876836 101.42058059 4.71430834 113.85975971 -12.91015625 122.4296875 C-28.86414259 129.24206471 -47.08955989 129.2876707 -63.20898438 122.99462891 C-77.01778968 116.94233058 -87.14446147 106.66034656 -95.2109375 94.1171875 C-95.9328125 93.0446875 -96.6546875 91.9721875 -97.3984375 90.8671875 C-105.95933422 75.3690124 -106.61965358 53.55195098 -102.04931641 36.70117188 C-96.56283565 18.36025229 -84.60256339 4.5803942 -68.2109375 -4.8828125 C-67.53160156 -5.285 -66.85226562 -5.6871875 -66.15234375 -6.1015625 C-45.34712636 -17.52064231 -18.93094421 -12.7115562 0 0 Z " fill="#FCFDFC" transform="translate(733.2109375,471.8828125)"/>
<path d="M0 0 C61.05 0 122.1 0 185 0 C185 0.33 185 0.66 185 1 C184.30777344 1.08451416 183.61554688 1.16902832 182.90234375 1.25610352 C161.95719378 3.88976985 141.17561281 7.79570585 122 17 C121.40880371 17.27392578 120.81760742 17.54785156 120.20849609 17.83007812 C99.41486129 27.48892228 81.44544227 41.13963127 65 57 C64.15574463 57.81138428 64.15574463 57.81138428 63.29443359 58.63916016 C56.32461962 65.37156917 49.75769404 72.17904224 44 80 C43.55833496 80.59232422 43.11666992 81.18464844 42.66162109 81.79492188 C34.80850077 92.37762425 28.06007075 103.30278103 22 115 C21.67692871 115.60956543 21.35385742 116.21913086 21.02099609 116.84716797 C9.82117283 138.16565822 3.41264795 163.12748342 1 187 C0.67 187 0.34 187 0 187 C0 125.29 0 63.58 0 0 Z " fill="#FCFDFD" transform="translate(0,0)"/>
<path d="M0 0 C0.33 0 0.66 0 1 0 C1.07927734 0.68175293 1.15855469 1.36350586 1.24023438 2.06591797 C3.26016865 18.78617505 6.67276752 34.37799555 12.09960938 50.32128906 C12.83694142 52.51489188 13.52365907 54.70877056 14.171875 56.9296875 C21.45304883 80.28545279 37.73959859 102.93418152 54 121 C54.92723622 122.04934409 55.85431867 123.09882408 56.78125 124.1484375 C76.58266275 146.3689802 103.23852992 166.61810807 131.6953125 176.17578125 C134 177 134 177 136.01171875 178.046875 C138.250252 179.11996363 140.24304862 179.52418696 142.6875 179.9375 C147.63647288 180.85670001 152.27324078 182.28740608 157 184 C157 184.33 157 184.66 157 185 C105.19 185 53.38 185 0 185 C0 123.95 0 62.9 0 0 Z " fill="#FBFDFC" transform="translate(0,853)"/>
<path d="M0 0 C0.33 0 0.66 0 1 0 C1.64613605 4.3541218 2.29185493 8.70830537 2.9375 13.0625 C3.11990234 14.29162109 3.30230469 15.52074219 3.49023438 16.78710938 C4.34054622 22.5228493 5.1895332 28.25848253 6 34 C4 31 4 31 3 28 C2.01 28 1.02 28 0 28 C0 18.76 0 9.52 0 0 Z " fill="#E3F2F1" transform="translate(0,853)"/>
<path d="M0 0 C0.99 0 1.98 0 3 0 C2.01 7.92 1.02 15.84 0 24 C-0.33 24 -0.66 24 -1 24 C-1.02893932 20.37501666 -1.04677792 16.75006287 -1.0625 13.125 C-1.07087891 12.09246094 -1.07925781 11.05992187 -1.08789062 9.99609375 C-1.09111328 9.00996094 -1.09433594 8.02382812 -1.09765625 7.0078125 C-1.10289307 6.09660645 -1.10812988 5.18540039 -1.11352539 4.24658203 C-1 2 -1 2 0 0 Z " fill="#EDF6F7" transform="translate(1,163)"/>
<path d="M0 0 C2.93230193 1.32120828 4.98664899 2.74638197 7.234375 5.0390625 C8.09482422 5.90917969 8.09482422 5.90917969 8.97265625 6.796875 C9.55917969 7.40015625 10.14570313 8.0034375 10.75 8.625 C11.35199219 9.23601563 11.95398438 9.84703125 12.57421875 10.4765625 C14.05405305 11.97988624 15.52764676 13.48934856 17 15 C16.34 15.66 15.68 16.32 15 17 C12.49195282 14.54976242 9.9949924 12.08852402 7.5 9.625 C6.78457031 8.92632813 6.06914062 8.22765625 5.33203125 7.5078125 C4.65527344 6.8375 3.97851562 6.1671875 3.28125 5.4765625 C2.65283203 4.85861816 2.02441406 4.24067383 1.37695312 3.60400391 C0 2 0 2 0 0 Z " fill="#219597" transform="translate(242,770)"/>
<path d="M0 0 C0.33 0 0.66 0 1 0 C1.66 6.6 2.32 13.2 3 20 C2.01 20.33 1.02 20.66 0 21 C0 14.07 0 7.14 0 0 Z " fill="#C8E5E5" transform="translate(0,853)"/>
<path d="M0 0 C0.94552734 -0.01224609 1.89105469 -0.02449219 2.86523438 -0.03710938 C3.77724609 -0.03904297 4.68925781 -0.04097656 5.62890625 -0.04296875 C6.45592041 -0.04707764 7.28293457 -0.05118652 8.13500977 -0.05541992 C10.64223181 0.20909985 12.27073384 0.93089391 14.4375 2.1875 C13.40810303 2.17964478 13.40810303 2.17964478 12.35791016 2.17163086 C9.25944936 2.15089044 6.16100314 2.13784924 3.0625 2.125 C1.44214844 2.11243164 1.44214844 2.11243164 -0.2109375 2.09960938 C-1.2421875 2.09638672 -2.2734375 2.09316406 -3.3359375 2.08984375 C-4.76558838 2.08198853 -4.76558838 2.08198853 -6.22412109 2.07397461 C-8.58574406 2.03107401 -8.58574406 2.03107401 -10.5625 3.1875 C-12.23904729 2.90807545 -13.90858154 2.57921753 -15.5625 2.1875 C-15.5625 1.8575 -15.5625 1.5275 -15.5625 1.1875 C-10.33559076 0.01981721 -5.33429142 0.00365112 0 0 Z " fill="#CCE6E7" transform="translate(301.5625,459.8125)"/>
<path d="M0 0 C0.66 0.33 1.32 0.66 2 1 C-2.62 5.62 -7.24 10.24 -12 15 C-12.66 14.67 -13.32 14.34 -14 14 C-9.67106815 8.81580806 -5.23435005 4.27293882 0 0 Z " fill="#D0E9EA" transform="translate(437,397)"/>
<path d="M0 0 C0.33 0 0.66 0 1 0 C1 4.62 1 9.24 1 14 C0.67 14 0.34 14 0 14 C-0.33 15.65 -0.66 17.3 -1 19 C-1.33 19 -1.66 19 -2 19 C-2.24794402 12.4294834 -1.32388229 6.43028541 0 0 Z " fill="#43A4A6" transform="translate(330,692)"/>
<path d="M0 0 C-1.45722728 2.91445456 -3.05244268 3.65437601 -6 5 C-9.8125 4.6875 -9.8125 4.6875 -13 4 C-10.56272708 2.37515139 -8.62713877 1.34310925 -5.9375 0.3125 C-5.24527344 0.04050781 -4.55304687 -0.23148438 -3.83984375 -0.51171875 C-2 -1 -2 -1 0 0 Z " fill="#41A8A8" transform="translate(644,828)"/>
<path d="M0 0 C0.66 0.99 1.32 1.98 2 3 C1.01 3.33 0.02 3.66 -1 4 C-0.6596875 4.86625 -0.6596875 4.86625 -0.3125 5.75 C0 8 0 8 -1.3125 10.25 C-1.869375 10.8275 -2.42625 11.405 -3 12 C-3.66 12 -4.32 12 -5 12 C-4.54738642 10.56068883 -4.08767021 9.12361001 -3.625 7.6875 C-3.24214844 6.48673828 -3.24214844 6.48673828 -2.8515625 5.26171875 C-2 3 -2 3 0 0 Z " fill="#359EA2" transform="translate(837,720)"/>
<path d="M0 0 C0.33 0 0.66 0 1 0 C3.13619737 6.20514474 4.36517527 11.42684522 4 18 C3.67 18 3.34 18 3 18 C2.87882813 17.41992188 2.75765625 16.83984375 2.6328125 16.2421875 C1.85299276 12.60702777 1.04877952 9.13863654 -0.1875 5.625 C-1 3 -1 3 0 0 Z " fill="#4FABAA" transform="translate(990,158)"/>
<path d="M0 0 C0.66 0.33 1.32 0.66 2 1 C-1.3 4.3 -4.6 7.6 -8 11 C-8 7.0234755 -6.61988497 5.9109833 -4 3 C-1.75 1.1875 -1.75 1.1875 0 0 Z " fill="#CCE8E8" transform="translate(178,376)"/>
<path d="M0 0 C0.66 0.33 1.32 0.66 2 1 C-0.97 3.97 -3.94 6.94 -7 10 C-7 6.04435836 -5.59478606 4.89133304 -3 2 C-2.01 1.34 -1.02 0.68 0 0 Z " fill="#C6E6E5" transform="translate(821,634)"/>
<path d="M0 0 C2 4 2 4 1.875 6.125 C1 8 1 8 -3 10 C-2.01 6.7 -1.02 3.4 0 0 Z " fill="#319DA1" transform="translate(591,514)"/>
<path d="M0 0 C0.99 0.33 1.98 0.66 3 1 C1.35 2.98 -0.3 4.96 -2 7 C-2.66 6.01 -3.32 5.02 -4 4 C-2.68 2.68 -1.36 1.36 0 0 Z " fill="#E1F0F1" transform="translate(757,824)"/>
<path d="M0 0 C1.32 0.33 2.64 0.66 4 1 C2.02 2.98 0.04 4.96 -2 7 C-2.66 6.67 -3.32 6.34 -4 6 C-2.68 4.02 -1.36 2.04 0 0 Z " fill="#22969A" transform="translate(802,779)"/>
<path d="M0 0 C-3.20380017 2.13586678 -4.01939967 2.23132175 -7.6875 2.125 C-8.89986328 2.09792969 -8.89986328 2.09792969 -10.13671875 2.0703125 C-11.05904297 2.03550781 -11.05904297 2.03550781 -12 2 C-7.66032699 -0.21504143 -4.80574417 -1.54470348 0 0 Z " fill="#BCE2E2" transform="translate(850,1036)"/>
<path d="M0 0 C0.33 1.32 0.66 2.64 1 4 C-1.31 5.98 -3.62 7.96 -6 10 C-4.21739173 6.43478346 -2.24007711 3.28544643 0 0 Z " fill="#2C979A" transform="translate(360,631)"/>
<path d="M0 0 C0.99 0 1.98 0 3 0 C3 1.65 3 3.3 3 5 C2.01 5 1.02 5 0 5 C-0.5625 3.0625 -0.5625 3.0625 -1 1 C-0.67 0.67 -0.34 0.34 0 0 Z " fill="#088586" transform="translate(803,677)"/>
<path d="M0 0 C0.66 0.66 1.32 1.32 2 2 C-1.13498292 3.85776765 -3.37471432 4.20140476 -7 4 C-5 1 -5 1 -2.5 0.1875 C-1.2625 0.0946875 -1.2625 0.0946875 0 0 Z " fill="#1D9191" transform="translate(263,614)"/>
<path d="M0 0 C0.66 0 1.32 0 2 0 C3.06775224 1.96466413 4.06553465 3.96855359 5 6 C4.67 6.66 4.34 7.32 4 8 C1.44971017 6.72485508 1.06918289 5.59658703 0 3 C0 2.01 0 1.02 0 0 Z " fill="#389FA0" transform="translate(162,729)"/>
<path d="M0 0 C0.66 0.66 1.32 1.32 2 2 C0.68 3.65 -0.64 5.3 -2 7 C-2.6875 5.1875 -2.6875 5.1875 -3 3 C-1.5625 1.25 -1.5625 1.25 0 0 Z " fill="#E9F5F4" transform="translate(353,637)"/>
<path d="M0 0 C0.33 1.32 0.66 2.64 1 4 C-0.9375 6.25 -0.9375 6.25 -3 8 C-3.66 7.67 -4.32 7.34 -5 7 C-3.35 4.69 -1.7 2.38 0 0 Z " fill="#33A0A3" transform="translate(579,538)"/>
<path d="M0 0 C0.66 0.33 1.32 0.66 2 1 C-0.12055614 4.1808342 -1.63050557 5.31525278 -5 7 C-5.66 6.67 -6.32 6.34 -7 6 C-4.69 4.02 -2.38 2.04 0 0 Z " fill="#2F9699" transform="translate(230,402)"/>
</svg>
